<svg height="18in" viewBox="116.526 113.84 229.798 178.053" width="18in" xmlns="http://www.w3.org/2000/svg"><path d="m179.328 113.84v84.557l48.338-18.957v-65.6zm55.842 0v42.278l48.336 18.958v-61.236zm0 50.36v84.522h48.336v-65.602zm-7.504 23.321-48.338 18.957v42.242h48.338zm-105.91 75.46-5.23 2.007v4.956l5.23-2.006zm.016 4.974v4.079h11.112c.333 0 .65.065.933.198a2.845 2.845 0 0 1 1.8 2.636s-.017.398-.068.597a2.578 2.578 0 0 1 -1.582 1.972 2.887 2.887 0 0 1 -1.2.265h-11.011v-5.646l-5.23 2v17.837h18.89s.316-.017.45-.017c3.315-.215 5.963-2.901 6.18-6.266.017-.166 0-1.094 0-1.26-.15-1.757-1.05-3.332-2.449-4.493a6.806 6.806 0 0 0 1.3-3.563c0-.133.033-1.36.016-1.526-.3-3.812-4.081-6.813-8.679-6.813zm-.016 4.101.016-.006v-.016h-.016zm202.18-3.155v22.975h17.274c2.815 0 5.098-2.272 5.098-5.073v-8.221c.016-2.802-2.266-5.09-5.098-5.09h-12.027v-4.592h-.1zm-113.373 0v22.976h17.275c.088 0 .176-.002.262-.007 2.694-.136 4.835-2.352 4.835-5.067v-8.237c.016-2.802-2.265-5.073-5.097-5.073h-12.027v-4.592h-.101zm62.281.034v22.942h19.19l-1.649-4.343h-12.31v-18.6zm22.955 4.557 1.5 3.962h16.74c.285 0 .518.232.518.513v2.338h-14.944c-2.815 0-5.096 2.27-5.096 5.071v1.427c0 2.801 2.281 5.073 5.096 5.073h19.724v-13.328c0-2.785-2.282-5.056-5.114-5.056zm-148.59 0 1.5 3.962h16.741c.284 0 .517.233.517.515v2.337h-14.942c-2.815 0-5.098 2.271-5.098 5.073v1.425c0 2.801 2.283 5.073 5.098 5.073h19.707v-13.328c.016-2.802-2.282-5.056-5.098-5.056zm28.153 0v18.385h5.098v-13.842c0-.282.233-.514.517-.514h6.896c.283 0 .517.232.517.514v13.842h5.114v-13.842a.518.518 0 0 1 .516-.514h6.797c.283 0 .516.232.516.514v13.842h5.131v-13.311c-.05-2.802-2.333-5.073-5.148-5.073zm61.853 0v13.312c0 2.801 2.282 5.073 5.098 5.073h12.677c2.815 0 5.097-2.272 5.097-5.073v-13.311h-4.782v13.875h.017a.518.518 0 0 1 -.515.513h-12.261a.518.518 0 0 1 -.517-.513v-13.875zm-21.404 4.03h11.477c.283 0 .516.231.516.513v9.333a.518.518 0 0 1 -.516.514h-11.478zm113.372.015h11.478c.284 0 .517.232.517.513v9.334a.517.517 0 0 1 -.517.513h-11.478zm-207.427 4.227h11.861a3.05 3.05 0 0 1 3.066 3.05 3.054 3.054 0 0 1 -3.066 3.067h-11.861zm178.041 2.486h14.743v3.63h-14.743a.518.518 0 0 1 -.516-.514v-2.602c0-.282.233-.514.516-.514zm-148.59 0h14.743v3.631h-14.743a.518.518 0 0 1 -.515-.513v-2.603c0-.282.233-.514.515-.514z" stroke-width="2.59"/><text stroke-width=".265" transform="translate(312.921 98.35)" x="-291.967" y="382.842"/></svg>